<?xml version="1.0" standalone="no"?>
<!DOCTYPE svg PUBLIC "-//W3C//DTD SVG 20010904//EN"
 "http://www.w3.org/TR/2001/REC-SVG-20010904/DTD/svg10.dtd">
<svg version="1.0" xmlns="http://www.w3.org/2000/svg"
 width="1080.000000pt" height="1080.000000pt" viewBox="0 0 1080.000000 1080.000000"
 preserveAspectRatio="xMidYMid meet">
<metadata>
Created by potrace 1.14, written by Peter Selinger 2001-2017
</metadata>
<g transform="translate(0.000000,1080.000000) scale(0.100000,-0.100000)"
fill="#000000" stroke="none">
<path d="M2698 10793 c1486 -2 3918 -2 5405 0 1486 1 270 2 -2703 2 -2973 0
-4189 -1 -2702 -2z"/>
<path d="M6355 9976 c-123 -12 -158 -22 -135 -36 7 -4 27 -4 44 1 17 5 75 14
129 20 54 6 110 15 125 19 26 8 25 8 -8 8 -19 0 -89 -6 -155 -12z"/>
<path d="M6216 9845 c-3 -9 -6 -47 -6 -83 0 -37 -3 -118 -7 -180 -6 -105 -8
-113 -28 -118 -19 -5 -24 -16 -34 -87 -6 -45 -11 -111 -12 -147 0 -36 -4 -74
-8 -85 -5 -11 -6 25 -3 80 2 55 1 97 -3 93 -4 -4 -16 -1 -26 6 -16 11 -31 9
-97 -9 -42 -13 -113 -26 -156 -30 -44 -4 -91 -11 -105 -17 -14 -5 -75 -12
-136 -14 -104 -4 -227 -20 -178 -23 13 0 22 -4 22 -8 -3 -20 2 -26 11 -13 8
12 10 10 10 -8 0 -13 -4 -20 -10 -17 -5 3 -10 2 -10 -3 0 -13 49 -22 56 -11 3
5 0 9 -6 9 -6 0 -8 5 -5 10 12 19 40 10 53 -17 15 -33 4 -46 -38 -46 -16 0
-30 -4 -30 -9 0 -4 5 -8 12 -8 6 0 8 -3 5 -7 -4 -3 -15 1 -25 10 -16 15 -21
15 -38 2 -18 -13 -18 -14 5 -8 17 4 22 3 17 -5 -4 -7 -14 -12 -22 -12 -8 0
-15 -11 -16 -27 -1 -16 -2 -45 -4 -65 -3 -59 -68 -121 -187 -178 -53 -25 -94
-50 -90 -54 4 -4 -3 -9 -15 -13 -12 -3 -19 -9 -16 -14 3 -5 -3 -9 -13 -10 -27
-1 -66 -9 -72 -14 -5 -5 53 -9 79 -5 8 1 19 8 23 16 5 8 24 14 46 14 25 0 41
5 45 15 3 8 12 15 20 15 7 0 13 8 12 17 0 11 12 25 33 35 19 9 37 21 40 25 7
10 61 13 61 3 0 -4 -9 -15 -20 -25 -25 -22 -26 -37 -2 -28 15 6 15 5 3 -10 -7
-9 -28 -21 -45 -25 -17 -5 -32 -14 -32 -20 -4 -37 -4 -37 -13 -23 -7 11 -14
11 -42 -2 -19 -8 -63 -18 -97 -21 -35 -3 -69 -9 -75 -13 -6 -4 -25 -7 -42 -8
-16 -1 -41 -5 -55 -9 -23 -6 -24 -6 -7 7 17 14 16 15 -5 20 -29 7 -77 -4 -106
-24 -19 -14 -21 -20 -13 -42 9 -22 7 -28 -9 -37 -16 -9 -20 -8 -20 5 0 10 -10
15 -30 15 -16 0 -30 -4 -30 -10 0 -5 -15 -17 -32 -27 -27 -14 -29 -18 -14 -21
10 -2 23 1 28 6 6 6 29 4 66 -5 38 -10 77 -13 117 -9 33 4 87 9 119 12 33 2
67 10 75 18 9 7 31 13 48 13 23 0 38 7 52 25 11 14 48 37 82 53 79 35 120 30
165 -21 20 -22 39 -34 48 -31 18 7 31 -24 14 -35 -7 -4 -9 -8 -4 -8 5 0 2 -8
-5 -17 -10 -11 -10 -14 -1 -9 6 4 12 2 12 -3 0 -10 -14 -15 -33 -12 -5 1 -6
-3 -2 -9 3 -6 -3 -10 -15 -10 -16 0 -26 -11 -38 -40 -19 -44 -32 -52 -32 -19
0 44 -62 69 -73 29 -3 -13 0 -20 10 -20 8 0 11 -4 8 -10 -3 -5 -19 -10 -35
-10 -19 0 -33 -7 -40 -19 -14 -27 -13 -31 10 -31 29 0 25 -18 -5 -26 -35 -9
-27 -13 36 -23 36 -6 66 -5 94 3 22 7 45 11 52 9 6 -2 14 1 18 6 3 6 1 11 -6
11 -10 0 -10 3 -1 12 9 9 16 8 30 -5 10 -9 21 -17 24 -17 12 0 61 50 55 56 -4
4 -7 2 -7 -4 0 -7 -7 -12 -15 -12 -12 0 -12 3 3 18 18 19 30 14 50 -24 11 -21
62 -39 62 -23 0 5 5 9 10 9 6 0 9 -10 7 -22 -2 -13 -2 -17 0 -10 3 7 9 9 15 6
6 -4 5 3 -2 16 -9 16 -9 25 -1 33 8 8 11 7 12 -3 3 -39 30 -120 39 -120 4 0
10 -17 13 -39 6 -48 34 -91 58 -91 22 0 23 6 8 50 -9 25 -9 34 1 40 6 4 11 10
11 14 -4 26 1 46 10 46 5 0 7 -5 3 -12 -5 -7 -3 -8 6 -3 9 5 10 22 5 59 -3 28
-8 76 -11 106 -2 30 -7 78 -10 105 -3 28 -7 98 -10 157 -4 120 -10 111 80 123
77 10 95 21 117 67 12 26 18 33 15 18 -29 -161 -37 -210 -46 -299 -10 -100
-14 -539 -6 -530 3 3 8 83 11 179 9 250 37 450 63 450 5 0 16 37 26 81 26 122
82 298 100 318 9 10 28 19 43 19 14 0 28 3 32 8 7 11 111 54 128 54 6 0 13 5
15 11 2 5 11 11 19 12 24 4 109 51 109 60 0 5 -5 5 -11 2 -6 -4 -5 1 2 13 14
23 73 51 123 59 20 3 33 9 31 14 -3 4 10 11 29 14 24 5 33 11 29 21 -4 10 3
14 26 14 17 0 31 5 31 10 0 15 47 31 100 35 304 22 511 13 561 -24 16 -12 33
-21 39 -21 6 0 36 -9 67 -20 65 -23 108 -24 208 -6 69 12 70 13 67 42 -3 37
-33 107 -49 117 -8 5 -11 12 -8 18 4 5 0 9 -7 9 -14 0 -44 39 -40 53 1 4 -5 7
-13 7 -8 0 -15 9 -15 19 0 11 -5 21 -12 23 -7 3 -11 22 -10 47 2 42 -28 111
-48 111 -5 0 -12 -26 -16 -57 -8 -65 -14 -73 -64 -73 -19 0 -80 -7 -135 -15
-166 -24 -168 -25 -156 -39 15 -18 -20 -33 -94 -40 -34 -3 -77 -12 -98 -21
-20 -8 -57 -15 -82 -15 -48 0 -64 -19 -17 -21 15 -1 30 -1 35 0 4 0 7 -2 7 -7
0 -4 -57 -9 -126 -10 -76 -1 -123 2 -119 7 7 13 6 13 -231 11 -126 -1 -209 2
-221 9 -29 15 -41 54 -47 159 -6 94 -26 153 -40 117z m-107 -772 c0 -5 -4 -17
-9 -28 -8 -18 -9 -17 -9 8 -1 15 4 27 9 27 6 0 10 -3 9 -7z m-599 -148 c-7 -8
-17 -15 -23 -15 -6 0 -2 7 9 15 25 19 30 19 14 0z m553 0 c-3 -9 -8 -14 -10
-11 -3 3 -2 9 2 15 9 16 15 13 8 -4z m-605 -27 c-3 -14 -18 -28 -32 -28 -5 0
-3 6 3 14 9 11 9 15 -1 19 -7 3 -3 6 10 6 12 1 21 -4 20 -11z m42 -8 c-18 -12
-30 -13 -30 -2 0 4 10 9 22 9 18 2 20 0 8 -7z m-7 -40 c-27 -30 -40 -39 -27
-19 4 8 -1 9 -17 4 -22 -7 -22 -6 -10 9 8 9 20 15 28 12 8 -3 12 -2 8 3 -5 9
10 19 33 20 6 1 0 -12 -15 -29z m554 -2 c-3 -8 -6 -5 -6 6 -1 11 2 17 5 13 3
-3 4 -12 1 -19z m-533 -373 c7 -30 7 -30 -9 -7 -9 12 -13 27 -10 33 9 13 11
11 19 -26z m141 -5 c3 -5 1 -10 -4 -10 -6 0 -11 5 -11 10 0 6 2 10 4 10 3 0 8
-4 11 -10z m-310 -50 c3 -5 1 -10 -4 -10 -6 0 -11 5 -11 10 0 6 2 10 4 10 3 0
8 -4 11 -10z m52 -15 c-4 -19 -36 -35 -67 -33 -42 3 -32 22 15 26 28 2 35 6
25 12 -11 7 -9 9 7 7 12 0 21 -6 20 -12z m263 0 c0 -8 -4 -15 -8 -15 -5 0 -9
7 -9 15 0 8 4 15 9 15 4 0 8 -7 8 -15z m-30 -16 c0 -6 -4 -7 -10 -4 -5 3 -10
11 -10 16 0 6 5 7 10 4 6 -3 10 -11 10 -16z m-120 -5 c0 -2 -7 -4 -15 -4 -8 0
-15 4 -15 10 0 5 7 7 15 4 8 -4 15 -8 15 -10z"/>
<path d="M6788 9573 c12 -2 30 -2 40 0 9 3 -1 5 -23 4 -22 0 -30 -2 -17 -4z"/>
<path d="M6898 9563 c7 -3 16 -2 19 1 4 3 -2 6 -13 5 -11 0 -14 -3 -6 -6z"/>
<path d="M8515 9550 c-4 -6 3 -10 14 -10 25 0 27 6 6 13 -8 4 -17 2 -20 -3z"/>
<path d="M7934 9370 c20 -22 36 -46 36 -53 0 -7 16 -29 36 -48 20 -18 54 -65
76 -104 23 -38 59 -99 80 -135 35 -58 78 -177 108 -296 12 -50 60 -96 154
-149 90 -50 98 -45 79 42 -8 37 -30 102 -48 143 -19 41 -43 113 -55 160 -24
96 -72 206 -131 297 -35 53 -49 66 -113 97 -80 40 -209 86 -239 86 -16 0 -14
-6 17 -40z"/>
<path d="M7810 9386 c0 -12 48 -86 85 -131 54 -66 157 -220 188 -281 13 -27
35 -77 47 -112 13 -35 26 -58 30 -52 4 6 11 1 17 -12 18 -36 76 -241 75 -263
-1 -17 0 -18 8 -4 6 11 6 37 0 72 -15 77 -68 240 -83 252 -7 6 -23 39 -36 75
-43 120 -80 190 -129 248 -27 31 -53 67 -56 79 -4 11 -13 27 -21 33 -8 7 -15
20 -15 30 0 19 -67 70 -93 70 -9 0 -17 -2 -17 -4z"/>
<path d="M5375 9210 c-3 -5 1 -10 9 -10 8 0 18 5 21 10 3 6 -1 10 -9 10 -8 0
-18 -4 -21 -10z"/>
<path d="M6770 9139 c-42 -12 -182 -71 -177 -75 3 -3 154 44 222 70 31 12 35
15 15 15 -14 -1 -41 -5 -60 -10z"/>
<path d="M7560 9137 c8 -8 144 -57 147 -53 5 5 -86 42 -122 51 -16 3 -28 4
-25 2z"/>
<path d="M7127 9113 c18 -2 50 -2 70 0 21 2 7 4 -32 4 -38 0 -55 -2 -38 -4z"/>
<path d="M7275 9111 c14 -7 15 -10 5 -10 -13 -1 -13 -2 0 -11 14 -9 208 -15
199 -6 -2 3 -40 10 -84 16 -44 5 -93 13 -110 15 -24 4 -26 3 -10 -4z"/>
<path d="M7095 9000 c-58 -11 -22 -15 180 -20 67 -2 82 -4 60 -11 -21 -5 -13
-6 25 -3 33 4 67 1 85 -7 l30 -13 -40 -6 -40 -6 35 -8 c56 -12 64 -14 88 -21
13 -4 66 -30 118 -56 52 -27 98 -48 102 -47 13 4 112 -55 112 -66 0 -6 42 -47
93 -91 50 -43 85 -71 77 -60 -14 17 -14 17 7 4 16 -9 19 -16 10 -21 -8 -5 1
-21 31 -50 23 -24 42 -48 42 -52 0 -5 18 -36 41 -70 32 -47 39 -54 33 -31 -3
17 -15 39 -25 51 -22 23 -26 42 -6 25 8 -6 18 -7 22 -3 5 4 5 1 1 -6 -5 -8 1
-23 14 -37 13 -14 19 -29 15 -36 -5 -7 -4 -10 3 -5 9 6 20 -11 23 -39 1 -5 10
-27 21 -48 28 -56 15 -57 -17 -2 -15 25 -29 44 -32 42 -6 -7 23 -73 46 -106
47 -66 85 -236 82 -368 -1 -30 3 -55 10 -59 9 -5 11 34 6 167 -4 96 -7 175 -7
177 0 1 -6 2 -14 2 -16 0 -22 14 -30 70 -20 126 -43 184 -119 297 -43 65 -106
141 -157 191 -96 94 -254 211 -333 247 -121 55 -463 99 -592 75z m428 -57 c-7
-2 -21 -2 -30 0 -10 3 -4 5 12 5 17 0 24 -2 18 -5z m492 -314 c22 -24 23 -28
6 -14 -23 19 -24 19 -17 1 4 -13 -5 -8 -32 15 -21 19 -34 37 -28 41 14 9 36
-4 71 -43z m315 -534 c0 -8 -2 -15 -4 -15 -2 0 -6 7 -10 15 -3 8 -1 15 4 15 6
0 10 -7 10 -15z m-3 -57 c-3 -8 -6 -5 -6 6 -1 11 2 17 5 13 3 -3 4 -12 1 -19z"/>
<path d="M9000 8975 c0 -14 -4 -25 -10 -25 -5 0 -12 -16 -16 -35 -3 -19 -11
-35 -18 -35 -8 0 -8 -2 0 -8 13 -9 25 -50 16 -56 -13 -8 2 -256 16 -264 7 -5
12 -34 13 -80 1 -40 5 -75 10 -78 5 -3 9 -19 9 -35 0 -18 4 -28 10 -24 7 4 9
-3 6 -19 -3 -15 -1 -24 5 -21 5 4 6 11 3 17 -5 7 -1 9 9 5 11 -4 14 -2 10 9
-3 7 0 14 6 14 6 0 11 7 11 16 0 8 -4 13 -9 9 -5 -3 -13 0 -17 6 -4 7 -3 9 3
6 13 -8 22 27 18 71 -2 17 1 32 5 32 5 0 7 78 6 173 -2 130 -7 181 -19 210 -9
21 -12 35 -7 32 14 -9 12 9 -2 24 -10 11 -10 13 0 7 6 -4 12 -3 12 2 0 12 -39
52 -51 52 -6 0 -7 5 -4 10 3 6 1 10 -4 10 -6 0 -11 -11 -11 -25z"/>
<path d="M6530 8782 c-14 -2 -36 -15 -49 -28 -27 -30 -43 -24 -16 6 31 35 9
22 -57 -32 -211 -174 -341 -414 -402 -738 -19 -98 -12 -310 9 -310 6 0 12 -6
12 -12 2 -34 36 -184 43 -193 5 -6 12 -30 16 -53 4 -23 15 -52 26 -64 11 -13
27 -39 35 -58 9 -20 17 -29 20 -22 4 10 8 10 19 1 12 -10 13 -8 8 7 -11 30
-25 44 -37 37 -6 -4 -8 0 -4 9 3 9 0 21 -6 27 -6 6 -12 33 -13 59 -1 26 -12
81 -25 122 -22 69 -24 92 -24 270 1 277 24 378 124 540 28 44 48 86 46 93 -3
6 49 67 114 135 66 67 117 122 114 122 -3 0 4 9 17 20 13 11 28 20 33 20 6 0
7 3 3 7 -3 4 3 12 15 19 25 13 15 22 -21 16z m-420 -1330 c0 -33 -16 -18 -26
23 -7 27 -6 29 9 16 10 -7 17 -25 17 -39z"/>
<path d="M7648 8653 c6 -2 18 -2 25 0 6 3 1 5 -13 5 -14 0 -19 -2 -12 -5z"/>
<path d="M6495 8470 c-38 -38 -65 -70 -60 -70 5 0 -5 -13 -23 -30 -30 -27
-100 -160 -116 -221 -6 -22 -5 -21 9 4 9 15 20 27 24 27 10 0 135 226 130 234
-2 3 23 33 56 66 33 33 57 60 54 60 -2 0 -36 -31 -74 -70z"/>
<path d="M7975 8497 c10 -15 20 -25 23 -22 3 3 -5 16 -17 28 l-23 22 17 -28z"/>
<path d="M5160 8440 c0 -5 12 -10 28 -9 24 0 25 1 7 9 -27 12 -35 12 -35 0z"/>
<path d="M583 8340 c-27 -16 -33 -26 -33 -55 0 -40 4 -41 59 -19 56 22 102 15
120 -18 13 -22 13 -36 3 -85 -16 -80 -90 -303 -92 -278 -2 32 -37 -63 -70
-191 -47 -182 -40 -276 30 -374 30 -42 122 -64 247 -58 113 6 145 20 317 142
38 27 43 13 16 -45 -25 -53 -62 -79 -153 -109 -58 -18 -171 -134 -207 -212
-16 -35 -30 -58 -30 -53 -4 30 -19 -38 -19 -86 -1 -55 0 -57 39 -84 35 -24 46
-27 87 -21 45 6 113 46 113 67 0 15 46 80 52 74 8 -8 67 126 97 218 24 76 30
84 73 112 60 39 86 57 71 50 -7 -3 -13 -2 -13 3 0 5 15 15 33 23 59 23 192
108 206 131 l15 23 7 -25 c4 -14 7 -40 8 -59 1 -25 10 -42 36 -67 34 -32 48
-55 22 -38 -7 5 -4 1 6 -8 28 -26 95 -41 157 -35 62 6 167 46 150 57 -8 5 1
17 24 35 20 15 36 34 36 41 0 20 44 28 81 15 41 -14 117 -14 157 0 17 6 41 25
53 44 13 18 37 41 53 51 17 10 59 44 93 76 77 71 95 75 80 17 -6 -26 -17 -43
-28 -46 -14 -4 -19 -19 -24 -66 -7 -74 5 -123 28 -119 11 2 19 -8 25 -29 18
-72 119 -99 225 -59 31 12 57 27 57 34 0 7 15 27 34 45 43 42 66 37 66 -16 0
-21 4 -43 8 -49 12 -18 81 -36 110 -29 45 11 92 37 92 50 0 16 66 75 85 75 19
0 55 48 55 75 0 16 -7 24 -23 27 -34 7 -44 0 -78 -49 -55 -79 -157 -127 -189
-88 -13 16 -10 36 22 190 16 75 70 219 77 206 4 -5 17 17 30 50 20 49 22 64
13 84 -12 27 -43 33 -60 12 -6 -7 -25 -56 -42 -108 -34 -103 -49 -135 -129
-272 -67 -115 -75 -124 -133 -153 -117 -59 -210 -5 -195 114 7 51 45 173 76
243 17 36 19 38 15 14 -2 -16 7 -1 21 35 38 93 40 108 20 131 -18 19 -19 19
-43 -3 -13 -13 -39 -46 -58 -74 -37 -56 -236 -254 -305 -304 -58 -42 -110 -55
-155 -38 -31 11 -35 16 -30 38 25 109 26 128 12 207 -13 74 -17 83 -57 121
-37 35 -51 42 -86 42 -56 0 -185 -25 -220 -43 -59 -31 -138 -128 -171 -210
-28 -72 -56 -107 -131 -167 -62 -49 -142 -101 -151 -98 -3 2 9 57 29 123 26
88 37 114 41 96 4 -17 16 13 44 110 69 241 88 296 95 275 5 -13 13 3 28 55 11
41 33 115 48 164 48 157 49 165 16 165 -12 0 -27 -34 -55 -126 -23 -72 -42
-119 -46 -110 -3 9 -29 -56 -59 -149 -30 -91 -59 -165 -66 -165 -11 0 -35 -41
-35 -60 0 -5 -13 -37 -29 -72 -16 -35 -32 -73 -36 -86 -3 -12 -31 -43 -60 -69
-30 -25 -52 -49 -50 -54 9 -14 -63 -66 -131 -93 -130 -52 -252 -54 -332 -4
-20 13 -40 22 -44 21 -12 -4 -32 72 -31 123 0 28 6 82 14 120 11 57 14 64 19
40 4 -24 11 -7 38 89 47 166 93 290 102 274 12 -19 31 54 36 141 4 60 2 82
-13 109 -35 67 -142 93 -210 51z m1383 -523 c22 -19 29 -38 40 -103 32 -197 2
-244 -67 -102 -27 57 -34 82 -34 132 1 99 13 114 61 73z m-128 -59 c1 -108 32
-199 82 -239 51 -41 54 -76 9 -114 -127 -106 -276 -90 -299 33 -6 31 -8 32 -9
10 -2 -43 -18 -33 -24 15 -8 54 3 187 14 187 5 0 10 -21 10 -47 l1 -48 8 53
c12 79 85 185 143 205 65 24 65 24 65 -55z m667 -37 c-3 -6 -11 -11 -17 -11
-6 0 -6 6 2 15 14 17 26 13 15 -4z m-1390 -512 c-4 -12 -43 -93 -87 -180 -75
-149 -82 -158 -119 -173 -22 -9 -44 -14 -49 -11 -5 3 -14 23 -20 45 -9 35 -7
46 21 109 17 39 36 71 41 71 5 0 35 28 66 62 48 52 115 97 145 98 5 0 5 -10 2
-21z"/>
<path d="M5538 8353 c7 -3 16 -2 19 1 4 3 -2 6 -13 5 -11 0 -14 -3 -6 -6z"/>
<path d="M5540 8332 c0 -12 19 -26 26 -19 2 2 -2 10 -11 17 -9 8 -15 8 -15 2z"/>
<path d="M6236 8249 c-9 -23 -15 -43 -13 -46 3 -2 12 15 21 38 9 23 15 43 13
46 -3 2 -12 -15 -21 -38z"/>
<path d="M7293 8253 c9 -2 23 -2 30 0 6 3 -1 5 -18 5 -16 0 -22 -2 -12 -5z"/>
<path d="M1481 8194 c0 -11 3 -14 6 -6 3 7 2 16 -1 19 -3 4 -6 -2 -5 -13z"/>
<path d="M5841 8164 c0 -11 3 -14 6 -6 3 7 2 16 -1 19 -3 4 -6 -2 -5 -13z"/>
<path d="M8310 8161 c0 -6 4 -13 10 -16 6 -3 7 1 4 9 -7 18 -14 21 -14 7z"/>
<path d="M6276 8105 c-9 -26 -7 -32 5 -12 6 10 9 21 6 23 -2 3 -7 -2 -11 -11z"/>
<path d="M1788 7883 c7 -3 16 -2 19 1 4 3 -2 6 -13 5 -11 0 -14 -3 -6 -6z"/>
<path d="M6700 7790 c0 -5 5 -10 10 -10 6 0 10 5 10 10 0 6 -4 10 -10 10 -5 0
-10 -4 -10 -10z"/>
<path d="M10360 2898 c0 -7 5 -20 10 -28 8 -12 10 -9 10 13 0 15 -4 27 -10 27
-5 0 -10 -6 -10 -12z"/>
<path d="M10288 2693 c-21 -2 -38 -8 -38 -13 0 -4 19 -6 43 -3 23 2 53 5 66 5
17 0 19 3 10 9 -8 5 -21 8 -29 7 -8 -1 -32 -3 -52 -5z"/>
<path d="M10367 2623 c-4 -21 -4 -74 0 -119 4 -56 2 -83 -6 -88 -7 -5 -11 1
-11 14 0 11 -7 23 -15 26 -11 5 -15 21 -15 60 0 30 -4 54 -10 54 -10 0 -6 -57
10 -125 5 -22 12 -77 15 -123 3 -46 17 -162 30 -258 14 -96 25 -189 25 -207 0
-18 5 -39 10 -47 10 -15 16 147 11 320 -3 101 -8 127 -24 111 -22 -22 -27 -9
-27 74 0 47 4 85 9 85 14 0 18 -39 9 -80 -5 -25 -3 -39 7 -49 8 -8 17 -13 19
-10 8 8 -15 383 -23 392 -5 5 -11 -9 -14 -30z"/>
<path d="M4423 2205 c-6 -60 -10 -111 -8 -113 7 -8 27 136 23 178 -2 34 -6 17
-15 -65z"/>
<path d="M4396 1945 c-4 -60 -10 -118 -12 -127 -3 -10 -1 -18 4 -18 11 0 26
165 20 220 -2 19 -7 -14 -12 -75z"/>
<path d="M6923 1770 c1 -19 8 -41 15 -48 7 -8 10 -18 7 -23 -3 -4 2 -23 11
-41 11 -21 13 -37 7 -47 -14 -24 -1 -159 19 -210 l11 -26 7 27 c8 26 -3 168
-17 218 -3 14 -5 33 -4 44 3 17 -26 85 -40 96 -4 3 -9 14 -12 25 -3 11 -5 4
-4 -15z"/>
<path d="M4368 1635 c-12 -61 -10 -111 3 -98 5 5 9 38 7 74 -3 61 -3 62 -10
24z"/>
<path d="M10402 1190 c-1 -113 4 -257 9 -320 5 -63 10 -127 9 -142 0 -15 5
-30 10 -33 8 -5 7 -11 -1 -21 -13 -15 -4 -49 10 -39 5 3 13 0 17 -7 4 -7 4
-10 0 -6 -15 13 -32 -15 -28 -44 2 -15 8 -26 12 -23 17 10 28 -23 33 -100 3
-44 11 -150 17 -235 6 -85 13 -170 16 -187 l5 -33 94 0 94 0 -5 33 c-3 17 -11
79 -18 137 -47 361 -60 439 -78 443 -12 4 -16 11 -12 22 4 9 0 21 -8 28 -10 8
-21 55 -32 136 -20 144 -80 401 -104 445 -9 17 -22 58 -28 91 -10 53 -12 37
-12 -145z"/>
<path d="M4306 1318 c-4 -24 -11 -70 -16 -103 -9 -54 -18 -132 -51 -425 -13
-120 -29 -201 -63 -315 -22 -76 -86 -419 -86 -461 0 -8 10 -14 24 -14 21 0 24
5 29 68 6 70 50 254 67 285 6 10 17 70 26 135 8 64 17 123 19 129 6 17 32 291
40 423 4 58 13 136 21 173 16 78 18 147 5 147 -5 0 -12 -19 -15 -42z"/>
<path d="M7042 1280 c0 -25 3 -54 8 -65 7 -16 9 -13 8 15 0 19 -4 49 -8 65 -7
27 -8 26 -8 -15z"/>
<path d="M7234 485 c1 -44 13 -171 26 -282 l23 -203 50 0 c43 0 48 2 42 18 -5
9 -17 65 -29 124 -17 88 -24 108 -38 108 -12 0 -18 8 -18 23 0 12 -8 54 -16
92 -9 39 -22 99 -30 135 l-13 65 3 -80z"/>
</g>
</svg>
